<svg width="137" height="40" viewBox="0 0 137 40" fill="none" xmlns="http://www.w3.org/2000/svg">
<g id="_&#227;&#131;&#172;&#227;&#130;&#164;&#227;&#131;&#164;&#227;&#131;&#188;_1" clip-path="url(#clip0_334_152)">
<path id="Vector" d="M102.036 36.5012L99.3444 35.0138L103.736 27.2201C104.365 26.101 104.756 24.6731 104.894 22.9761V14.8311H95.2109V11.7629H104.894V8.23572H107.963V11.7629H110.348V14.8311H107.963V22.962C107.872 24.9876 107.353 26.9368 106.421 28.7782L102.033 36.5012H102.036ZM96.0694 12.6213V13.9755H105.753V23.0243C105.6 24.8658 105.175 26.4126 104.484 27.6394L100.517 34.6824L101.71 35.3425L105.671 28.376C106.538 26.662 107.025 24.829 107.11 22.9478V13.9783H109.495V12.6241H107.11V9.09697H105.756V12.6241" fill="#52A93F"/>
<path id="Vector_2" d="M130.93 36.2774H121.096C118.504 35.9969 117.119 34.6115 116.864 32.0419V31.9994V8.13373H119.969V14.9132H124.247C125.224 14.7886 125.938 14.29 126.428 13.3862L126.434 13.3777L127.53 10.4568L130.443 11.5334L129.324 14.4628C128.865 15.4884 128.185 16.3241 127.292 16.9729C126.372 17.6018 125.343 17.939 124.224 17.9843H119.972V32.0363C120.028 32.7134 120.419 33.1015 121.102 33.1752H121.111H130.936V36.2802L130.93 36.2774ZM121.164 35.4189H130.072V34.0307L121.003 34.0251C119.901 33.9033 119.195 33.1837 119.113 32.1043V32.0504L119.11 17.1259H124.204C125.145 17.089 126.023 16.8001 126.796 16.2703C127.556 15.7207 128.142 14.9982 128.53 14.1342L129.329 12.0377L128.029 11.5589L127.182 13.7942C126.559 14.9444 125.607 15.6073 124.349 15.7632L124.261 15.7717H119.11V8.99215H117.722V31.9796C117.94 34.1214 119.003 35.1838 121.167 35.4218L121.164 35.4189Z" fill="#52A93F"/>
<path id="Vector_3" d="M102.798 39.2096L96.613 35.7901L101.993 26.2398C102.472 25.3899 102.775 24.2624 102.894 22.8883V16.8341H93.2104V9.76276H102.894V6.2356H109.965V9.76276H112.351V16.8341H109.965V23.0527C109.86 25.3559 109.268 27.5884 108.209 29.6848L108.195 29.7132L102.798 39.2096ZM97.783 35.4586L102.472 38.0509L107.444 29.2996C108.449 27.3136 109.01 25.1973 109.107 23.013V22.979V15.9813H111.492V10.6268H109.107V7.09968H103.752V10.6268H94.0689V15.9813H103.752V22.9478C103.622 24.4522 103.282 25.7016 102.741 26.6648L97.783 35.4643V35.4586Z" fill="#52A93F"/>
<path id="Vector_4" d="M132.93 38.2775L120.921 38.269C117.357 37.9007 115.209 35.7476 114.869 32.2063L114.861 32.0986V6.13361H121.966V12.9131H124.082C124.323 12.865 124.465 12.7601 124.609 12.5278L126.349 7.89294L133.026 10.3605L131.142 15.2844C130.548 16.6216 129.647 17.735 128.46 18.5934L128.423 18.6189C127.185 19.466 125.796 19.9221 124.298 19.9816H124.233H121.966V31.1722H132.93V38.2775ZM121.06 37.4191H132.072V32.0278H121.108V19.1232H124.272C125.601 19.0694 126.836 18.6614 127.935 17.9106L127.964 17.8908C129.02 17.1231 129.828 16.1286 130.361 14.9303L130.375 14.8963L131.916 10.8592L126.85 8.9865L125.366 12.9273C125.083 13.4089 124.709 13.6724 124.19 13.7602L124.119 13.7659H121.105V6.98636H115.714V32.0703L115.719 32.1185C116.014 35.2093 117.892 37.0905 121.006 37.4106L121.057 37.4163L121.06 37.4191Z" fill="#52A93F"/>
<path id="Vector_5" d="M42.7565 14.1455C42.4137 10.2642 40.0849 7.92122 36.198 7.54726L29.1238 7.53876L29.0247 7.54726C25.1264 7.89006 22.7919 10.233 22.452 14.1455L22.4463 14.2078V32.5037C22.4463 33.7842 22.7126 35.0336 23.2395 36.2093C23.9875 38.0225 25.4238 39.0792 27.39 39.2662L27.5543 39.2804L27.7186 39.2662C29.3816 39.1274 30.7925 38.3568 31.8039 37.0338L31.8294 36.9969C31.903 36.8949 31.9739 36.7958 32.0419 36.6938L35.2291 31.5263C35.9373 30.0758 36.3453 28.5402 36.4359 26.9367V14.3778L36.3765 13.9726L36.0818 13.9188C36.062 13.916 36.0422 13.9131 36.0167 13.9075H35.4529V21.4434C35.3792 23.7835 35.0166 26.1236 34.3791 28.3873L32.7076 33.5151C32.3422 34.5577 31.8152 35.5606 31.1438 36.4926L31.124 36.5181C30.2655 37.64 29.0672 38.2945 27.6506 38.4135L27.5628 38.422L27.475 38.4135C25.846 38.2605 24.6561 37.3851 24.03 35.8694C23.5483 34.7928 23.3047 33.6624 23.3047 32.5037V14.222C23.6107 10.7684 25.6703 8.70031 29.1068 8.39717H36.0761H36.1243C39.5551 8.72581 41.6119 10.7939 41.9151 14.2191L41.9208 26.9877V27.0246C41.7933 29.546 41.1672 31.9484 40.0594 34.161L37.0451 39.5722L37.7845 40L40.7847 34.6172L40.8187 34.552C41.9831 32.2261 42.6375 29.7075 42.7707 27.0699V14.2418L42.765 14.1426L42.7565 14.1455Z" fill="#52A93F"/>
<path id="Vector_6" d="M17.2733 32.9315L18.8825 25.7299L16.5848 25.2228L14.9473 32.4952C14.494 33.6879 13.5903 34.4075 12.3381 34.5804L12.2616 34.586H8.80525C7.62953 34.4897 6.94676 33.8013 6.8816 32.6482V32.617V19.7719H13.8453V17.395H6.8816V13.3494H13.8453V11.0064H6.8816V5.96643H4.50466V11.0064H2.42236V13.3494H4.50466V17.395H2.42236V19.7719H4.50466V32.5915C4.74831 35.2688 6.179 36.6995 8.87891 36.9658H12.2361C14.834 36.7391 16.48 35.4218 17.2733 32.9372V32.9315Z" fill="#52A93F"/>
<path id="Vector_7" d="M40.3427 26.9651V14.3353C40.0991 11.6581 38.6741 10.2274 35.994 9.96106H29.2145C26.5344 10.2047 25.1094 11.6354 24.8657 14.3325V32.5037C24.8657 33.4471 25.0669 34.3707 25.4607 35.249C25.863 36.232 26.5287 36.7363 27.5656 36.8496C28.5317 36.7562 29.2853 36.3369 29.8746 35.5691C30.4525 34.7702 30.9086 33.9004 31.2259 32.9995L32.872 27.951C33.4726 25.8262 33.8154 23.6136 33.8862 21.3981V12.3408H36.0818C37.2235 12.4372 37.9063 13.1171 38.0026 14.2616V14.3098V27.0104C37.9035 28.8264 37.436 30.5914 36.6173 32.2544L36.6031 32.2828L33.5859 37.5834L35.6484 38.7705L38.6627 33.4471C39.66 31.4498 40.2323 29.2599 40.3484 26.9623L40.3427 26.9651ZM31.5036 21.4378C31.4299 23.3869 31.1211 25.3276 30.5857 27.2087L28.9567 32.3139C28.8008 32.7275 28.6054 33.1327 28.3731 33.518L27.6393 34.7419L27.3277 33.3508C27.271 33.0987 27.2427 32.8154 27.2427 32.5094V14.2616C27.339 13.1171 28.0218 12.4372 29.1635 12.3408H29.2116H31.5036V21.4378Z" fill="#52A93F"/>
<path id="Vector_8" d="M59.4491 31.8606C59.8401 31.0759 60.0497 30.2288 60.0752 29.3392V21.6928C59.8769 19.5906 58.7947 18.5084 56.6671 18.2874H44.686V20.3414H56.7237C57.4943 20.381 57.9788 20.8655 58.0184 21.6361V21.6644V29.3987C57.9079 30.5404 57.4263 31.5206 56.5849 32.3082L56.5481 32.3394L51.5364 36.2802L52.8084 37.8979L57.8428 33.9627C58.517 33.3706 59.0582 32.6624 59.452 31.8549L59.4491 31.8606Z" fill="#52A93F"/>
<path id="Vector_9" d="M15.0691 24.8856L13.44 32.0334C13.2021 32.5944 12.8139 32.906 12.2247 33.0108L12.151 33.0165H8.87032C8.84765 33.0108 8.82499 33.008 8.80799 33.0052L8.48502 32.9513L8.44819 32.566V21.3358H15.4119V15.8255H8.44819V14.9132H15.4119V9.43692H8.44819V5.96359H9.30378V8.58417H16.2674V22.1942H9.30378V32.1666H12.1142C12.389 32.1127 12.525 32.0023 12.644 31.736L14.2361 24.7071L15.0719 24.8913L15.0691 24.8856ZM21.2593 26.254L19.5906 33.6369C18.4999 37.0876 16.021 39.0736 12.4173 39.3767L12.338 39.3824L8.67484 39.3739C4.77088 39.0028 2.43077 36.6598 2.0908 32.7757L2.0823 32.6765V22.1914H0V8.58134H2.0823V5.96075H2.93789V9.43409H0.855585V14.9104H2.93789V15.8226H0.855585V21.3329H2.93789V32.6964C3.24386 36.1215 5.30916 38.1897 8.757 38.5183L8.80516 38.524H12.3465C15.5762 38.2492 17.8001 36.47 18.7775 33.3763L18.7889 33.3366L20.4264 26.0642L21.2593 26.2483V26.254Z" fill="#52A93F"/>
<path id="Vector_10" d="M50.043 34.3849L54.9782 30.4951C55.3436 30.1353 55.5363 29.75 55.5986 29.2457V22.7636H44.6885V21.9081H56.4542V29.3193C56.3692 30.0304 56.0774 30.6197 55.5589 31.1212L55.5249 31.1495L50.5699 35.0535L50.043 34.382V34.3849ZM53.7684 39.1302L58.8594 35.1583C59.698 34.4274 60.3695 33.5519 60.8511 32.5604C61.3469 31.5688 61.6132 30.4951 61.6415 29.3703V21.6191L61.6387 21.5738C61.378 18.6869 59.7037 17.0097 56.797 16.7236L56.7488 16.7179H44.6913V15.8623L56.882 15.8708C60.2023 16.1994 62.194 18.1967 62.4914 21.4944L62.4999 21.5964V29.376C62.4688 30.6367 62.1741 31.8323 61.6217 32.9315C61.0919 34.0222 60.3496 34.9883 59.4232 35.7957L59.3921 35.8212L54.3011 39.7932L53.7741 39.1217L53.7684 39.1302Z" fill="#52A93F"/>
<path id="Vector_11" d="M75.1471 8.36322H70.4839V10.7487H75.1273C75.5721 10.7175 75.9659 10.862 76.2718 11.168L76.3427 11.2558C76.4843 11.4711 76.5778 11.7062 76.6118 11.9584L76.6203 12.0264L76.4163 14.1512L78.7621 14.3693L78.9321 12.2813C78.9944 11.2189 78.6998 10.3294 78.0312 9.57577C77.2407 8.76551 76.2917 8.36322 75.1471 8.36322Z" fill="#52A93F"/>
<path id="Vector_12" d="M82.0599 32.6425C81.938 30.3789 81.3686 28.2116 80.3657 26.1973L76.0141 18.5056L73.98 19.6671L78.2749 27.3787C79.1333 29.0445 79.6149 30.8039 79.7141 32.6284V32.6765L79.7113 32.7247C79.5838 33.8041 78.9067 34.467 77.8046 34.5917H77.7395L74.2095 34.5945V36.9799H77.7111C80.3459 36.7136 81.7681 35.2943 82.0599 32.6425Z" fill="#52A93F"/>
<path id="Vector_13" d="M83.8358 23.5201C84.3542 23.9734 84.6007 24.5995 84.5695 25.3757V28.2003H86.955V25.3531C86.955 24.2368 86.6575 23.2594 86.0455 22.3642C85.3939 21.4661 84.5383 21.0156 83.4476 20.993H81.6543V23.3784H83.6743L83.8358 23.5201Z" fill="#52A93F"/>
<path id="Vector_14" d="M70.5488 32.0136H72.6679V29.6282H70.4015L70.3052 29.5942C69.4297 29.2712 68.9651 28.5743 68.9963 27.6337V22.0186H66.6108V27.6365C66.7638 30.1834 68.0529 31.6141 70.546 32.0136H70.5488Z" fill="#52A93F"/>
<path id="Vector_15" d="M70.4838 5.93529H75.1471C76.9545 5.93529 78.5184 6.5954 79.7876 7.8986L79.8386 7.95243C80.9492 9.20181 81.4563 10.7062 81.3543 12.4343L80.9832 17.0097L77.7875 16.7123L79.2267 19.2563V18.5622H83.4593C85.3347 18.5962 86.9099 19.4207 88.0177 20.9449L88.046 20.9845C88.9327 22.2849 89.3804 23.7496 89.3804 25.3474V30.6226H84.2865C84.3857 31.26 84.4508 31.9116 84.482 32.5576L84.4905 32.7021L84.4763 32.8465C84.074 36.6967 81.7424 39.0226 77.915 39.3938L77.8243 39.4023H71.7757V34.4359L70.328 34.4302L70.2204 34.4132C66.5487 33.8495 64.4041 31.4838 64.1859 27.7555V27.713L64.1831 22.0101H65.0387V27.7045C65.2342 30.9881 67.1182 33.0675 70.3478 33.5633L70.4243 33.5746H72.6313V38.541L77.83 38.5353C81.207 38.2067 83.2638 36.1527 83.6207 32.7502L83.6292 32.6737V32.5972C83.5867 31.8153 83.4961 31.0306 83.3573 30.2656L83.2666 29.7613H88.5219V25.3418C88.5219 23.9196 88.1253 22.6164 87.3406 21.469L87.3207 21.4406C86.3801 20.1459 85.0401 19.4433 83.4479 19.415H80.0794V22.5059L76.5976 16.3496L71.8437 19.0665L76.8837 28.1153C77.6062 29.5262 78.0226 31.0107 78.1274 32.5462L78.1501 32.8919L77.8158 32.9854C77.7875 32.9939 77.7535 33.0024 77.7081 33.0109L77.6345 33.0165H74.2348V28.0502H70.5632V22.0101H71.4187V27.1918H75.0904V32.1581H77.2322C77.0905 30.8946 76.7194 29.6707 76.1273 28.5148L70.6822 18.7407L74.7391 16.4233L73.7617 16.3326L74.0648 13.1653H70.4753V12.3097H75.0082L74.6966 15.5592L76.2293 15.7009L80.1956 16.0692L80.4959 12.3663C80.5837 10.8847 80.1474 9.58711 79.2012 8.52188L79.1643 8.48222C78.0679 7.35749 76.7137 6.78521 75.1442 6.78521H70.481V5.92963L70.4838 5.93529ZM83.0003 28.2655L82.1787 26.3702C82.0597 26.0982 81.9351 25.8262 81.8048 25.5627L81.4988 24.9451H82.9975V28.2627L83.0003 28.2655Z" fill="#52A93F"/>
<path id="Vector_16" d="M124.736 2.31814L122.935 4.11908L124.736 5.92003L126.537 4.11908L124.736 2.31814Z" fill="#52A93F"/>
<path id="Vector_17" d="M131.916 0L128.326 3.58949L124.737 0L120.618 4.11927L124.737 8.23854L128.326 4.64905L131.916 8.23854L136.035 4.11927L131.916 0ZM124.737 7.17898L121.677 4.11927L124.737 1.05957L127.797 4.11927L124.737 7.17898ZM131.916 7.17898L128.856 4.11927L131.916 1.05957L134.976 4.11927L131.916 7.17898Z" fill="#52A93F"/>
<path id="Vector_18" d="M131.914 2.31582L130.113 4.11676L131.914 5.91771L133.715 4.11676L131.914 2.31582Z" fill="#52A93F"/>
<path id="Vector_19" d="M89.8705 13.4684L89.3946 13.4372C89.2501 13.4287 89.117 13.3409 89.0943 13.2446C89.0745 13.1482 89.0943 12.8394 89.2133 12.7573L89.6099 12.491C89.7289 12.4116 89.7686 12.2445 89.6977 12.1198L89.5136 11.8025C89.4428 11.6779 89.2756 11.6269 89.1481 11.6921L88.7175 11.9045C88.5872 11.9669 88.4285 11.9612 88.3634 11.8875C88.2982 11.8167 88.1594 11.5362 88.2217 11.4059L88.4342 10.9753C88.4965 10.845 88.4484 10.6806 88.3237 10.6098L88.0064 10.4257C87.8817 10.3548 87.7146 10.3917 87.6353 10.5135L87.369 10.9101C87.2896 11.0291 87.182 11.1141 87.131 11.0943L87.0828 11.0801L86.961 11.0433C86.8222 11.0149 86.7003 10.8733 86.689 10.7288L86.6579 10.25C86.6494 10.1055 86.5219 9.98938 86.3774 9.98938H86.0119C85.8674 9.98938 85.7428 10.1084 85.7314 10.25L85.7003 10.726C85.6918 10.8705 85.604 11.0036 85.5076 11.0263C85.4113 11.0461 85.1025 11.0263 85.0203 10.9073L84.754 10.5107C84.6747 10.3917 84.5076 10.352 84.3829 10.4228L84.0656 10.607C83.941 10.6778 83.89 10.845 83.9551 10.9725L84.1676 11.4031C84.2299 11.5334 84.2243 11.6921 84.1506 11.7572C84.0769 11.8224 83.7993 11.9612 83.669 11.8989L83.2384 11.6864C83.108 11.6241 82.9437 11.6722 82.8729 11.7969L82.6887 12.1142C82.6179 12.2388 82.6547 12.406 82.7766 12.4853L83.1732 12.7516C83.2922 12.8309 83.3772 12.9386 83.3573 12.9896L83.3432 13.0378L83.3063 13.1596C83.278 13.2984 83.1364 13.4202 82.9919 13.4316L82.5131 13.4627C82.3686 13.4712 82.2524 13.5987 82.2524 13.7432V14.1087C82.2524 14.2531 82.3686 14.3778 82.5131 14.3891L82.989 14.4203C83.1335 14.4288 83.2667 14.5166 83.2893 14.6129C83.3092 14.7093 83.2893 15.0181 83.1704 15.1002L82.7737 15.3665C82.6547 15.4459 82.6151 15.613 82.6859 15.7377L82.8701 16.055C82.9409 16.1796 83.108 16.2306 83.2355 16.1655L83.6661 15.953C83.7965 15.8906 83.9551 15.8963 84.0203 15.97C84.0854 16.0408 84.2243 16.3213 84.1619 16.4516L83.9495 16.8822C83.8871 17.0125 83.9353 17.1769 84.0599 17.2477L84.3772 17.4318C84.5019 17.5027 84.6691 17.4658 84.7484 17.344L85.0147 16.9474C85.094 16.8284 85.2017 16.7434 85.2527 16.7632L85.3008 16.7774L85.4226 16.8142C85.5615 16.8426 85.6833 16.9842 85.6946 17.1287L85.7258 17.6075C85.7343 17.752 85.8618 17.8681 86.0062 17.8681H86.3717C86.5162 17.8681 86.6409 17.7491 86.6522 17.6075L86.6834 17.1315C86.6919 16.987 86.7797 16.8539 86.876 16.8312C86.9723 16.8114 87.2811 16.8312 87.3633 16.9502L87.6296 17.3468C87.7089 17.4658 87.8761 17.5055 88.0007 17.4347L88.318 17.2505C88.4427 17.1797 88.4937 17.0125 88.4285 16.8851L88.216 16.4544C88.1537 16.3241 88.1594 16.1655 88.233 16.1003C88.3067 16.0351 88.5843 15.8963 88.7147 15.9586L89.1453 16.1711C89.2756 16.2334 89.4399 16.1853 89.5108 16.0606L89.6949 15.7433C89.7657 15.6187 89.7289 15.4515 89.6071 15.3722L89.2104 15.1059C89.0915 15.0266 89.0065 14.9189 89.0263 14.8679L89.0405 14.8198L89.0773 14.6979C89.1056 14.5591 89.2473 14.4373 89.3918 14.426L89.8705 14.3948C90.015 14.3863 90.1312 14.2588 90.1312 14.1143V13.7489C90.1312 13.6044 90.0122 13.4797 89.8705 13.4684ZM86.1904 15.1144C85.536 15.1144 85.009 14.5846 85.009 13.933C85.009 13.2814 85.5388 12.7516 86.1904 12.7516C86.842 12.7516 87.3718 13.2814 87.3718 13.933C87.3718 14.5846 86.842 15.1144 86.1904 15.1144Z" fill="#52A93F"/>
</g>
<defs>
<clipPath id="clip0_334_152">
<rect width="136.032" height="40" fill="white"/>
</clipPath>
</defs>
</svg>
