<svg width="178" height="30" viewBox="0 0 178 30" fill="none" xmlns="http://www.w3.org/2000/svg">
<g id="_&#227;&#131;&#172;&#227;&#130;&#164;&#227;&#131;&#164;&#227;&#131;&#188;_1" clip-path="url(#clip0_90_6046)">
<path id="Vector" d="M134.699 8.81956H119.585V8.13982H134.014V0.917664H134.699V8.81956Z" fill="#52A93F"/>
<path id="Vector_2" d="M128.402 23.0157H122.903V22.336H128.402C131.121 22.336 134.011 20.3546 134.011 16.6806V13.785H119.582V13.1052H134.696V16.6806C134.696 20.7964 131.453 23.0157 128.402 23.0157Z" fill="#52A93F"/>
<path id="Vector_3" d="M128.286 28.0968H122.903V27.417H128.286C135.093 27.417 139.161 22.0471 139.161 16.854V13.1019H144.632V13.7816H139.846V16.854C139.846 22.3802 135.521 28.0968 128.286 28.0968Z" fill="#52A93F"/>
<path id="Vector_4" d="M144.632 8.81956H139.161V0.917664H139.845V8.13982H144.632V8.81956Z" fill="#52A93F"/>
<path id="Vector_5" d="M174.042 28.0968H156.291C153.158 28.0968 149.998 26.1663 149.998 21.85V0.917664H150.683V21.85C150.683 25.6973 153.501 27.417 156.291 27.417H174.042V28.0968Z" fill="#52A93F"/>
<path id="Vector_6" d="M174.042 23.0735H157.401C156.131 23.0735 155.172 22.1219 155.172 20.861V12.728H170.745V13.4077H155.857V20.861C155.857 21.7344 156.521 22.3938 157.401 22.3938H174.042V23.0735Z" fill="#52A93F"/>
<path id="Vector_7" d="M170.745 8.41511H155.172V0.917664H155.857V7.73538H170.745V8.41511Z" fill="#52A93F"/>
<path id="Vector_8" d="M132.902 7.03526H119.585V6.35552H132.217V0.917664H132.902V7.03526Z" fill="#52A93F"/>
<path id="Vector_9" d="M128.402 21.2314H122.903V20.5517H128.402C131.2 20.5517 132.213 18.2372 132.213 16.6806V15.5693H119.582V14.8895H132.898V16.6806C132.898 18.5091 131.7 21.2314 128.402 21.2314Z" fill="#52A93F"/>
<path id="Vector_10" d="M128.286 29.8811H122.903V29.2013H128.286C136.22 29.2013 140.958 22.924 140.958 16.854V14.8862H144.632V15.5659H141.643V16.854C141.643 23.2571 136.648 29.8811 128.286 29.8811Z" fill="#52A93F"/>
<path id="Vector_11" d="M144.633 7.03526H140.958V0.917664H141.643V6.35552H144.633V7.03526Z" fill="#52A93F"/>
<path id="Vector_12" d="M174.042 29.8811H156.291C151.525 29.8811 148.2 26.5776 148.2 21.85V0.917664H148.885V21.85C148.885 26.1799 151.932 29.2013 156.291 29.2013H174.042V29.8811Z" fill="#52A93F"/>
<path id="Vector_13" d="M174.042 21.2892H157.401C157.301 21.2892 157.216 21.2688 157.147 21.228L157.086 21.1906L157.045 21.1329C156.993 21.0615 156.969 20.9697 156.969 20.861V14.5123H170.744V15.192H157.654V20.6095H174.038V21.2892H174.042Z" fill="#52A93F"/>
<path id="Vector_14" d="M170.744 6.63082H156.969V0.917664H157.654V5.95108H170.744V6.63082Z" fill="#52A93F"/>
<path id="Vector_15" d="M175.836 3.11997H170.08V0H175.836V0.679733H170.765V2.44024H175.836V3.11997Z" fill="#52A93F"/>
<path id="Vector_16" d="M178 7.48043H172.244V6.80069H177.315V5.03679H172.244V4.35706H178V7.48043Z" fill="#52A93F"/>
<path id="Vector_17" d="M44.1398 8.42871C39.2468 8.42871 35.2681 12.378 35.2681 17.2346C35.2681 18.329 35.4495 19.3384 35.8022 20.2357L36.2302 21.3198L47.4714 8.9725L46.2764 8.69041C45.5266 8.51368 44.8452 8.42871 44.1398 8.42871ZM36.7815 18.6655C36.6959 18.2169 36.6514 17.7376 36.6514 17.2346C36.6514 13.1359 40.0104 9.80177 44.1398 9.80177C44.3692 9.80177 44.5918 9.81197 44.8212 9.83236L36.7815 18.6655Z" fill="#52A93F"/>
<path id="Vector_18" d="M44.1395 4.81927C37.2434 4.81927 31.6313 10.3897 31.6313 17.2346C31.6313 20.81 33.1071 23.9707 35.9012 26.3736C35.932 26.4008 36.0039 26.4348 36.1477 26.4348C36.3634 26.4348 36.6099 26.3294 36.7469 26.1731L51.2581 10.0906L52.5113 11.9803C53.5317 13.5199 54.0727 15.3381 54.0727 17.2346C54.0727 20.0079 52.7955 22.7302 50.5664 24.7117C50.5459 24.7286 50.5322 24.7932 50.5322 24.868C50.5322 25.4424 51.6895 26.5571 52.3401 26.6387C55.0417 24.1645 56.651 20.6604 56.651 17.2346C56.651 10.3897 51.0389 4.81927 44.1429 4.81927H44.1395ZM35.8806 23.2264L34.8465 20.6095C34.4459 19.5933 34.2405 18.4581 34.2405 17.238C34.2405 11.8205 38.6815 7.41245 44.1395 7.41245C44.927 7.41245 45.6837 7.50422 46.5158 7.70134L49.3954 8.38107L35.8806 23.2264Z" fill="#52A93F"/>
<path id="Vector_19" d="M44.1398 2.42666C35.9118 2.42666 29.2212 9.07104 29.2212 17.2346C29.2212 21.5271 30.9743 25.3031 34.2785 28.1443C34.7682 28.593 35.4119 28.8275 36.1481 28.8275C37.0555 28.8275 37.9526 28.4298 38.5449 27.7671L50.9263 14.0433C51.4023 15.0153 51.6591 16.1199 51.6591 17.2312C51.6591 19.2908 50.6421 21.4252 48.9335 22.9444C48.4062 23.427 48.1152 24.1101 48.1152 24.8646C48.1152 26.7747 50.4401 29.0314 52.4055 29.0314C52.9808 29.0314 53.4259 28.8751 53.8094 28.5352C57.0931 25.6055 59.0551 21.3776 59.0551 17.2278C59.0551 9.06085 52.361 2.41986 44.1364 2.41986L44.1398 2.42666ZM52.8986 27.5122C52.7342 27.6651 52.5185 27.6651 52.4055 27.6651C51.2105 27.6651 49.4985 26.0202 49.4985 24.8714C49.4985 24.5044 49.632 24.1781 49.8683 23.9606C51.8851 22.1695 53.039 19.7225 53.039 17.238C53.039 15.5387 52.5562 13.9141 51.6488 12.5445L51.1284 11.7628L37.5074 26.8596C37.1753 27.2301 36.6514 27.4612 36.1412 27.4612C35.7612 27.4612 35.4393 27.3491 35.2099 27.1417C32.1967 24.5486 30.5977 21.1227 30.5977 17.2414C30.5977 9.83235 36.6685 3.80652 44.133 3.80652C51.5975 3.80652 57.6683 9.83235 57.6683 17.2414C57.6683 21.0072 55.8844 24.8476 52.8918 27.5156L52.8986 27.5122Z" fill="#52A93F"/>
<path id="Vector_20" d="M80.8865 14.1418C79.4998 11.7662 76.9488 10.2911 74.2301 10.2911C72.9016 10.2911 71.6176 10.6378 70.4123 11.3209L63.2937 15.4095C63.2389 15.4401 63.2046 15.4639 63.1807 15.4809C63.2354 16.0825 63.9511 17.3128 64.314 17.6458C64.3277 17.639 64.3448 17.6289 64.362 17.6187L71.6141 13.4791C72.6037 12.8877 73.6823 12.575 74.7198 12.575C77.4282 12.575 79.8045 15.0323 79.8045 17.8328C79.8045 19.668 78.7533 21.2892 76.8461 22.404L73.3775 24.4092C73.3364 24.433 73.3022 24.4568 73.2782 24.4738C73.3844 25.0413 74.1411 26.2173 74.5417 26.5333C74.5657 26.5198 74.5931 26.5062 74.6273 26.4858L78.3869 24.3208C80.6776 23.0089 81.9925 20.7522 81.9925 18.1353C81.9925 16.7554 81.6124 15.3721 80.8968 14.1384L80.8865 14.1418Z" fill="#52A93F"/>
<path id="Vector_21" d="M82.9722 12.9421C81.154 9.83234 77.8052 7.8985 74.2271 7.8985C72.4979 7.8985 70.7619 8.36412 69.204 9.24777L62.0922 13.333C61.2088 13.8326 60.7637 14.5395 60.7637 15.4333C60.7637 16.9253 62.4072 20.0827 64.2357 20.0827C64.6911 20.0827 65.102 19.9638 65.5608 19.6953L72.8403 15.5421C73.4635 15.1716 74.1107 14.9745 74.7133 14.9745C76.2439 14.9745 77.3875 16.4869 77.3875 17.8396C77.3875 19.0597 76.4288 19.8754 75.6241 20.341L72.135 22.3598C71.279 22.8696 70.8475 23.5425 70.8475 24.3616C70.8475 25.8129 72.6657 28.9804 74.4702 28.9804C74.9051 28.9804 75.3365 28.8479 75.8296 28.5624L79.5823 26.3974C82.5921 24.6709 84.3931 21.5849 84.3931 18.1387C84.3931 16.3374 83.9035 14.5429 82.9722 12.9421ZM78.8941 25.2079L75.1379 27.3728C74.9051 27.5088 74.7133 27.5836 74.5524 27.6005L74.4497 27.6141L74.3504 27.5836C73.4978 27.3355 72.2343 25.2589 72.2343 24.3616C72.2343 23.9606 72.5459 23.7193 72.8506 23.5391L76.326 21.5305C77.9045 20.6095 78.7777 19.301 78.7777 17.8396C78.7777 15.5829 76.8807 13.6015 74.7202 13.6015C73.8676 13.6015 72.9739 13.8666 72.135 14.3662L64.8794 18.5057C64.5883 18.6757 64.4137 18.7096 64.2425 18.7096H64.174L64.109 18.6927C63.2701 18.4649 62.1538 16.2898 62.1538 15.4367C62.1538 15.0527 62.3422 14.7808 62.7873 14.5293L69.9059 10.4407C71.2721 9.6658 72.7274 9.27496 74.2339 9.27496C77.319 9.27496 80.2089 10.9471 81.7806 13.6354C82.5887 15.0255 83.0132 16.5821 83.0132 18.1421C83.0132 21.1363 81.5135 23.7125 78.8941 25.2113V25.2079Z" fill="#52A93F"/>
<path id="Vector_22" d="M94.1552 16.9763C94.1175 17.0035 94.0593 17.0477 93.9874 17.1191L89.1458 21.8636C89.067 21.9384 89.0259 21.9893 89.002 22.0165C89.1218 22.4957 90.4606 23.8824 90.9982 24.0727C91.0256 24.0523 91.0701 24.0149 91.1249 23.9606L96.0247 19.1888C96.1035 19.1141 96.1445 19.0631 96.1685 19.0359C96.0589 18.5499 94.6859 17.1429 94.1552 16.9797V16.9763Z" fill="#52A93F"/>
<path id="Vector_23" d="M109.567 19.1514L109.484 18.5533C109.067 15.4843 106.865 12.9217 103.872 12.021L102.626 11.6472V4.46242C102.626 4.15994 102.414 3.94922 102.109 3.94922H92.5695C92.5079 3.94922 92.4154 3.94922 92.388 3.95941C92.3914 3.95941 92.2065 4.15314 92.2065 5.39365C92.2065 6.63416 92.3743 6.81769 92.3949 6.83808C92.4086 6.83808 92.5079 6.83808 92.5729 6.83808H97.6611C98.815 6.83808 99.7189 7.73533 99.7189 8.88068V14.5632L102.023 14.57C104.653 14.7978 106.714 17.0409 106.714 19.6714C106.714 22.5059 104.393 24.8102 101.537 24.8102H97.7535C97.6987 24.8102 97.62 24.8102 97.596 24.817C97.5994 24.817 97.418 25.0277 97.418 26.2241C97.418 27.4204 97.5823 27.5937 97.6029 27.6107C97.6097 27.6107 97.6953 27.6107 97.7535 27.6107H101.537C104.098 27.6107 106.444 26.4348 107.968 24.382L109.18 22.7506L110.772 24.3344C110.823 24.3854 110.861 24.4194 110.888 24.4398C111.412 24.2562 112.748 22.8628 112.884 22.353C112.86 22.3224 112.819 22.268 112.741 22.1966L109.57 19.1548L109.567 19.1514Z" fill="#52A93F"/>
<path id="Vector_24" d="M114.405 20.4633L111.84 18.0027C111.248 14.2676 108.618 11.1408 105.037 9.87989V4.45902C105.037 2.83106 103.749 1.55316 102.109 1.55316H92.5697C90.0804 1.55316 89.7928 3.7419 89.7928 5.39025C89.7928 7.17795 90.1078 9.22734 92.5697 9.22734H97.3018V16.5005C96.3568 15.4333 95.0693 14.5666 94.114 14.5666C93.4703 14.5666 92.8574 14.8521 92.289 15.4163L87.4884 20.1235C86.8892 20.6808 86.5845 21.3062 86.5845 21.9825C86.5845 23.7057 89.3237 26.4824 91.0255 26.4824C91.6761 26.4824 92.265 26.2139 92.8163 25.6633L97.6853 20.9187C98.2811 20.3648 98.5858 19.7394 98.5858 19.0665C98.5858 18.4411 98.2194 17.673 97.675 16.9525H101.835C103.219 17.0885 104.297 18.2746 104.297 19.668C104.297 21.1804 103.058 22.4142 101.531 22.4142H97.7469C95.285 22.4142 95.0008 24.5859 95.0008 26.2207C95.0008 27.8554 95.285 30 97.7469 30H101.531C104.626 30 107.475 28.6813 109.454 26.36C109.896 26.6829 110.358 26.8426 110.858 26.8426C112.559 26.8426 115.299 24.0489 115.299 22.3122C115.299 21.6359 114.994 21.0105 114.402 20.4599L114.405 20.4633ZM96.7368 19.9229L91.8473 24.6845C91.5528 24.9767 91.2994 25.1059 91.0323 25.1093H90.9912C90.0325 25.0379 88.0294 22.9817 87.9678 22.0097C87.9678 21.6936 88.115 21.4217 88.4335 21.1295L93.2614 16.3985C93.5627 16.0994 93.8503 15.9465 94.114 15.9465C95.1275 15.9873 97.1614 18.0469 97.2025 19.0529C97.2025 19.3622 97.0553 19.6307 96.7368 19.9263V19.9229ZM110.892 25.4696H110.854C110.584 25.4696 110.334 25.3404 110.043 25.0515L109.293 24.3072L108.79 24.9835C107.067 27.298 104.424 28.6269 101.531 28.6269H97.7469C96.7403 28.6269 96.3841 27.9982 96.3841 26.2241C96.3841 24.45 96.7403 23.7906 97.7469 23.7906H101.531C103.818 23.7906 105.68 21.9417 105.68 19.6714C105.68 17.5643 104.034 15.7698 101.928 15.5862H101.897H98.6851V8.88408C98.6851 8.3097 98.2331 7.86108 97.6545 7.86108H92.5663C91.5254 7.86108 91.1727 7.23913 91.1727 5.39705C91.1727 3.55497 91.5357 2.93302 92.5663 2.93302H102.106C102.972 2.93302 103.65 3.60595 103.65 4.46582V10.8927L104.167 11.049C107.543 12.0618 110.029 14.9541 110.502 18.4207L110.536 18.6688L113.443 21.4591C113.765 21.7582 113.919 22.0335 113.919 22.3224C113.878 23.3284 111.871 25.4084 110.892 25.4764V25.4696Z" fill="#52A93F"/>
<path id="Vector_25" d="M24.1843 13.1766C22.9619 13.1766 22.7701 13.3601 22.7633 13.3669C22.7633 13.3805 22.7633 13.4757 22.7633 13.5369V17.894C22.7633 21.6631 19.9008 24.5044 16.1035 24.5044C12.3062 24.5044 9.58405 21.7752 9.45393 18.1523L9.43339 17.6255H13.2855C13.3437 17.6255 13.4293 17.6255 13.4567 17.6187C13.4567 17.6119 13.621 17.4079 13.621 16.2422C13.621 15.0765 13.4361 14.8318 13.4293 14.825C13.4224 14.825 13.3402 14.825 13.2889 14.825H9.44366V8.3675H13.2889C13.3471 8.3675 13.4327 8.3675 13.4601 8.3607C13.4601 8.3539 13.6244 8.14998 13.6244 6.98424C13.6244 5.8185 13.4395 5.5738 13.4327 5.567C13.4258 5.567 13.3437 5.567 13.2923 5.567H9.66965L9.44709 4.27891C9.44709 4.21433 9.44024 4.19394 9.43681 4.19394C9.38888 4.15995 9.18001 4.0444 8.44383 4.01381H8.40617C8.16649 4.00362 7.87544 4.00362 7.63576 4.01381H7.59809C6.86192 4.0478 6.65647 4.16335 6.61196 4.19734C6.60854 4.19734 6.60169 4.21773 6.59826 4.28231L6.59142 4.35708L6.3757 5.567H2.75304C2.69825 5.567 2.6195 5.567 2.59553 5.5738C2.59553 5.5738 2.41748 5.77432 2.41748 6.98084C2.41748 8.18737 2.58184 8.35051 2.60238 8.3675C2.60923 8.3675 2.69483 8.3675 2.75304 8.3675H6.59826V14.825H2.75304C2.69825 14.825 2.6195 14.825 2.59553 14.8318C2.59553 14.8318 2.41748 15.0323 2.41748 16.2388C2.41748 17.4453 2.58184 17.6085 2.60238 17.6255C2.60923 17.6255 2.69483 17.6255 2.75304 17.6255H6.48527L6.67702 19.1515C7.26938 23.8926 11.2379 27.332 16.1103 27.332C21.4416 27.332 25.6189 23.1857 25.6189 17.894V13.5369C25.6189 13.4791 25.6189 13.3873 25.6087 13.3635C25.6087 13.3635 25.4135 13.1766 24.1945 13.1766H24.1843Z" fill="#52A93F"/>
<path id="Vector_26" d="M24.1842 10.784C22.5372 10.784 20.3492 11.0695 20.3492 13.5403V17.8974C20.3492 20.341 18.5619 22.1151 16.1 22.1151C14.4359 22.1151 13.0834 21.3028 12.378 20.0215H13.2819C15.7439 20.0215 16.028 17.8668 16.028 16.2422C16.028 14.6177 15.7439 12.4357 13.2819 12.4357H11.8507V10.7636H13.2819C15.7439 10.7636 16.028 8.60883 16.028 6.98427C16.028 5.35971 15.7439 3.17777 13.2819 3.17777H11.6179C11.6076 3.15397 11.5939 3.13358 11.5836 3.10979C11.5768 3.0962 11.5699 3.0826 11.5631 3.06901C11.2857 2.51842 10.8166 2.17516 10.2962 1.96104C10.2859 1.95764 10.279 1.95425 10.2688 1.95085C10.1832 1.91686 10.0941 1.88627 10.0051 1.85908C9.97773 1.85229 9.95376 1.84209 9.92636 1.83529C9.85446 1.8149 9.78255 1.79451 9.71407 1.77752C9.67983 1.77072 9.64559 1.76052 9.60793 1.75373C9.54629 1.74013 9.48466 1.72993 9.42303 1.71974C9.33743 1.70275 9.25182 1.69255 9.16622 1.67895C9.12513 1.67216 9.08404 1.66876 9.04638 1.66196C8.99159 1.65516 8.93681 1.65177 8.88202 1.64497C8.84436 1.64497 8.81012 1.63817 8.77245 1.63477C8.72109 1.63137 8.67316 1.62797 8.62522 1.62458C8.58755 1.62458 8.54989 1.62118 8.51223 1.61778C8.47114 1.61778 8.43005 1.61778 8.39238 1.61438C8.34787 1.61438 8.30678 1.61438 8.26569 1.61438C8.2383 1.61438 8.21091 1.61438 8.18351 1.61438C8.12188 1.61438 8.06367 1.61438 8.01231 1.61438C7.96095 1.61438 7.90274 1.61438 7.84111 1.61438C7.81372 1.61438 7.78632 1.61438 7.75893 1.61438C7.71784 1.61438 7.67675 1.61438 7.63224 1.61438C7.59458 1.61438 7.55349 1.61438 7.5124 1.61778C7.47473 1.61778 7.43707 1.61778 7.3994 1.62458C7.35147 1.62458 7.30353 1.63137 7.25559 1.63477C7.21793 1.63477 7.18026 1.64157 7.1426 1.64497C7.09124 1.64837 7.03988 1.65516 6.98509 1.65856C6.93373 1.66536 6.87895 1.67216 6.82759 1.67895C6.75568 1.68915 6.6872 1.69935 6.61529 1.71294C6.55024 1.72314 6.48518 1.73673 6.42012 1.75033C6.38588 1.75712 6.35506 1.76732 6.32082 1.77412C6.24892 1.79111 6.17359 1.8115 6.10168 1.83189C6.07771 1.83869 6.05375 1.84549 6.02635 1.85568C5.93733 1.88287 5.84488 1.91686 5.75928 1.95085C5.75243 1.95085 5.74558 1.95764 5.73531 1.96104C5.21485 2.17176 4.74575 2.51842 4.46498 3.06901C4.45813 3.0826 4.45128 3.0962 4.44444 3.10979C4.43416 3.13358 4.42047 3.15397 4.4102 3.17777H2.7461C0.284198 3.17777 0 5.35291 0 6.98767C0 8.62242 0.284198 10.767 2.7461 10.767H4.17736V12.4391H2.7461C0.284198 12.4391 0 14.6109 0 16.2456C0 17.8804 0.284198 20.0249 2.7461 20.0249H4.35883C5.34154 25.6837 10.19 29.7315 16.1 29.7315C22.7837 29.7315 28.0225 24.535 28.0225 17.8974V13.5403C28.0225 10.784 25.1361 10.784 24.1876 10.784H24.1842ZM26.6358 17.8974C26.6358 23.7635 22.0065 28.3551 16.1 28.3551C10.7036 28.3551 6.30713 24.5384 5.64971 19.2806L5.57095 18.6485H2.74952C1.74285 18.6485 1.38675 18.0197 1.38675 16.2456C1.38675 14.4715 1.74285 13.8122 2.74952 13.8122H5.56753V9.39392H2.74952C1.74285 9.39392 1.38675 8.76517 1.38675 6.99107C1.38675 5.21696 1.74285 4.55762 2.74952 4.55762H5.50932L5.56753 4.22455C5.57438 4.07841 5.60177 3.87109 5.72846 3.67397L5.75928 3.62639C5.80721 3.55842 5.85857 3.50404 5.92363 3.44626C5.95102 3.42247 5.97499 3.40548 5.99896 3.38508C6.29686 3.15737 6.77965 3.03842 7.55006 3.00443H7.59458C7.85823 2.99084 8.18009 2.99084 8.44374 3.00443H8.48826C9.25867 3.04182 9.74146 3.16077 10.0531 3.39528C10.0702 3.40548 10.0907 3.42587 10.1113 3.44286C10.1797 3.50064 10.2311 3.55842 10.2722 3.61619L10.3133 3.68077C10.4331 3.87109 10.4605 4.07501 10.4674 4.22115L10.5256 4.55762H13.2854C14.292 4.55762 14.6481 5.19317 14.6481 6.99107C14.6481 8.78896 14.292 9.39392 13.2854 9.39392H10.4674V13.8122H13.2854C14.292 13.8122 14.6481 14.4477 14.6481 16.2456C14.6481 18.0435 14.292 18.6485 13.2854 18.6485H10.5222C10.868 21.483 13.1381 23.4882 16.1034 23.4882C19.3151 23.4882 21.736 21.0853 21.736 17.8974V13.5403C21.736 12.5207 22.3763 12.157 24.1876 12.157C25.9989 12.157 26.6392 12.5309 26.6392 13.5403V17.8974H26.6358Z" fill="#52A93F"/>
<path id="Vector_27" d="M115.442 4.52701L114.867 4.48963C114.692 4.47943 114.531 4.37407 114.504 4.25852C114.48 4.14296 114.504 3.77251 114.648 3.67395L115.127 3.35447C115.271 3.25931 115.319 3.05879 115.233 2.90925L115.011 2.5286C114.925 2.37906 114.723 2.31788 114.569 2.39605L114.049 2.65095C113.891 2.72572 113.699 2.71892 113.621 2.63056C113.542 2.54559 113.374 2.20912 113.449 2.05279L113.706 1.53619C113.781 1.37985 113.723 1.18273 113.573 1.09776L113.189 0.876849C113.038 0.791882 112.836 0.836065 112.741 0.982207L112.419 1.45802C112.323 1.60076 112.193 1.70272 112.131 1.67893L112.073 1.66194L111.926 1.61776C111.758 1.58377 111.611 1.41384 111.597 1.24051L111.559 0.666132C111.549 0.4928 111.395 0.353455 111.22 0.353455H110.779C110.604 0.353455 110.453 0.496198 110.44 0.666132L110.402 1.23711C110.392 1.41044 110.286 1.57018 110.169 1.59737C110.053 1.62116 109.679 1.59737 109.58 1.45462L109.258 0.978809C109.162 0.836065 108.96 0.788484 108.81 0.87345L108.426 1.09436C108.276 1.17933 108.214 1.37985 108.293 1.53279L108.55 2.04939C108.625 2.20573 108.618 2.39605 108.529 2.47422C108.44 2.55239 108.104 2.71892 107.947 2.64415L107.426 2.38925C107.269 2.31448 107.07 2.37226 106.985 2.5218L106.762 2.90245C106.677 3.05199 106.721 3.25251 106.868 3.34768L107.348 3.66715C107.491 3.76231 107.594 3.89146 107.57 3.95264L107.553 4.01042L107.509 4.15656C107.474 4.32309 107.303 4.46924 107.129 4.48283L106.55 4.52022C106.375 4.53041 106.235 4.68335 106.235 4.85668V5.29511C106.235 5.46844 106.375 5.61798 106.55 5.63158L107.125 5.66896C107.3 5.67916 107.461 5.78452 107.488 5.90007C107.512 6.01563 107.488 6.38608 107.344 6.48464L106.865 6.80412C106.721 6.89928 106.673 7.0998 106.759 7.24934L106.981 7.62999C107.067 7.77953 107.269 7.84071 107.423 7.76254L107.943 7.50764C108.101 7.43287 108.293 7.43967 108.371 7.52803C108.45 7.613 108.618 7.94947 108.543 8.10581L108.286 8.6224C108.211 8.77874 108.269 8.97586 108.419 9.06083L108.803 9.28174C108.954 9.36671 109.156 9.32253 109.251 9.17638L109.573 8.70057C109.669 8.55783 109.799 8.45587 109.861 8.47966L109.919 8.49665L110.066 8.54083C110.234 8.57482 110.381 8.74475 110.395 8.91809L110.433 9.49246C110.443 9.66579 110.597 9.80514 110.772 9.80514H111.213C111.388 9.80514 111.539 9.66239 111.552 9.49246L111.59 8.92148C111.6 8.74815 111.707 8.58842 111.823 8.56123C111.939 8.53744 112.313 8.56123 112.412 8.70397L112.734 9.17978C112.83 9.32253 113.032 9.37011 113.182 9.28514L113.566 9.06423C113.716 8.97926 113.778 8.77874 113.699 8.6258L113.443 8.1092C113.367 7.95287 113.374 7.76254 113.463 7.68437C113.552 7.6062 113.888 7.43967 114.045 7.51444L114.566 7.76934C114.723 7.84411 114.922 7.78633 115.007 7.63679L115.23 7.25614C115.315 7.1066 115.271 6.90608 115.124 6.81091L114.644 6.49144C114.501 6.39628 114.398 6.26713 114.422 6.20595L114.439 6.14818L114.483 6.00203C114.518 5.8355 114.689 5.68936 114.864 5.67576L115.442 5.63838C115.617 5.62818 115.757 5.47524 115.757 5.30191V4.86348C115.757 4.69015 115.613 4.54061 115.442 4.52701ZM110.998 6.50164C110.207 6.50164 109.57 5.86609 109.57 5.08439C109.57 4.3027 110.21 3.66715 110.998 3.66715C111.785 3.66715 112.426 4.3027 112.426 5.08439C112.426 5.86609 111.785 6.50164 110.998 6.50164Z" fill="#52A93F"/>
</g>
<defs>
<clipPath id="clip0_90_6046">
<rect width="178" height="30" fill="white"/>
</clipPath>
</defs>
</svg>
