<svg width="218" height="64" viewBox="0 0 218 64" fill="none" xmlns="http://www.w3.org/2000/svg">
<g clip-path="url(#clip0_332_16206)">
<path d="M163.431 58.4019L159.125 56.0221L166.151 43.5521C167.157 41.7616 167.783 39.477 168.005 36.7618V23.7297H152.511V18.8206H168.005V13.1771H172.914V18.8206H176.731V23.7297H172.914V36.7391C172.769 39.9802 171.939 43.0988 170.448 46.0452L163.426 58.4019H163.431ZM153.885 20.1941V22.3608H169.378V36.8389C169.133 39.7852 168.453 42.2602 167.347 44.2229L161.001 55.4917L162.91 56.5479L169.247 45.4015C170.634 42.6591 171.413 39.7263 171.549 36.7165V22.3653H175.366V20.1986H171.549V14.5551H169.383V20.1986" fill="white"/>
<path d="M209.662 58.0438H193.928C189.781 57.595 187.564 55.3784 187.156 51.2671V51.1991V13.014H192.124V23.8612H198.969C200.533 23.6618 201.675 22.864 202.459 21.418L202.468 21.4044L204.223 16.731L208.882 18.4535L207.092 23.1405C206.358 24.7814 205.27 26.1186 203.842 27.1566C202.369 28.1629 200.723 28.7023 198.933 28.7749H192.129V51.258C192.219 52.3414 192.845 52.9624 193.937 53.0803H193.951H209.671V58.0483L209.662 58.0438ZM194.037 56.6703H208.289V54.4492L193.779 54.4401C192.016 54.2452 190.887 53.0939 190.755 51.3668V51.2807L190.751 27.4014H198.901C200.406 27.3425 201.811 26.8801 203.049 26.0325C204.263 25.1531 205.202 23.9972 205.823 22.6147L207.101 19.2603L205.02 18.4943L203.665 22.0707C202.668 23.9111 201.145 24.9718 199.132 25.2211L198.992 25.2347H190.751V14.3874H188.53V51.1674C188.879 54.5943 190.579 56.2941 194.042 56.6749L194.037 56.6703Z" fill="white"/>
<path d="M164.65 62.7353L154.755 57.2641L163.363 41.9837C164.129 40.6239 164.614 38.8198 164.804 36.6213V26.9345H149.311V15.6204H164.804V9.97693H176.119V15.6204H179.935V26.9345H176.119V36.8842C175.951 40.5695 175.004 44.1414 173.308 47.4957L173.286 47.5411L164.65 62.7353ZM156.627 56.7338L164.129 60.8814L172.084 46.8793C173.693 43.7017 174.591 40.3156 174.745 36.8208V36.7664V25.5701H178.562V17.0029H174.745V11.3595H166.178V17.0029H150.685V25.5701H166.178V36.7165C165.969 39.1235 165.425 41.1225 164.56 42.6637L156.627 56.7428V56.7338Z" fill="white"/>
<path d="M212.862 61.244L193.648 61.2304C187.945 60.6411 184.509 57.1961 183.965 51.53L183.952 51.3577V9.81372H195.32V20.661H198.706C199.092 20.5839 199.318 20.4162 199.549 20.0445L202.333 12.6287L213.017 16.5768L210.002 24.455C209.05 26.5945 207.609 28.3759 205.71 29.7494L205.651 29.7902C203.67 31.1455 201.449 31.8753 199.051 31.9705H198.946H195.32V49.8755H212.862V61.244ZM193.87 59.8705H211.489V51.2444H193.947V30.5971H199.01C201.136 30.5109 203.112 29.8582 204.871 28.657L204.916 28.6253C206.607 27.3968 207.899 25.8058 208.751 23.8884L208.774 23.834L211.24 17.3746L203.135 14.3784L200.76 20.6836C200.306 21.4542 199.708 21.8758 198.878 22.0163L198.765 22.0254H193.942V11.1781H185.316V51.3124L185.325 51.3895C185.797 56.3349 188.802 59.3447 193.784 59.8569L193.865 59.866L193.87 59.8705Z" fill="white"/>
<path d="M68.5847 22.6328C68.0362 16.4227 64.3102 12.674 58.0911 12.0757L46.7724 12.0621L46.6138 12.0757C40.3765 12.6242 36.6414 16.3729 36.0974 22.6328L36.0884 22.7325V52.006C36.0884 54.0549 36.5145 56.0539 37.3576 57.935C38.5543 60.8361 40.8525 62.5268 43.9983 62.826L44.2612 62.8487L44.5241 62.826C47.1849 62.6039 49.4423 61.371 51.0605 59.2541L51.1013 59.1952C51.2192 59.032 51.3325 58.8733 51.4413 58.7101L56.5408 50.4421C57.674 48.1213 58.3268 45.6645 58.4718 43.0988V23.0045L58.3766 22.3563L57.9052 22.2702C57.8735 22.2656 57.8418 22.2611 57.801 22.252H56.8989V34.3095C56.7811 38.0537 56.2008 41.7979 55.1809 45.4197L52.5065 53.6242C51.9218 55.2923 51.0787 56.897 50.0044 58.3883L49.9726 58.4291C48.5992 60.2241 46.6818 61.2712 44.4153 61.4616L44.2748 61.4752L44.1343 61.4616C41.5279 61.2168 39.624 59.8162 38.6223 57.3911C37.8517 55.6686 37.4618 53.8599 37.4618 52.006V22.7552C37.9514 17.2296 41.2468 13.9206 46.7452 13.4355H57.8962H57.9732C63.4626 13.9614 66.7534 17.2704 67.2385 22.7506L67.2475 43.1804V43.2394C67.0435 47.2736 66.0418 51.1175 64.2694 54.6577L59.4464 63.3156L60.6295 64L65.4298 55.3875L65.4842 55.2833C67.3472 51.5618 68.3943 47.532 68.6074 43.3119V22.7869L68.5983 22.6283L68.5847 22.6328Z" fill="white"/>
<path d="M27.8113 52.6904L30.386 41.1678L26.7098 40.3564L24.0898 51.9923C23.3645 53.9007 21.9185 55.052 19.915 55.3285L19.7926 55.3376H14.2624C12.3813 55.1835 11.2888 54.082 11.1846 52.2371V52.1872V31.6351H22.3265V27.832H11.1846V21.359H22.3265V17.6103H11.1846V9.54626H7.38149V17.6103H4.0498V21.359H7.38149V27.832H4.0498V31.6351H7.38149V52.1465C7.77131 56.43 10.0604 58.7192 14.3803 59.1452H19.7518C23.9084 58.7826 26.5421 56.6748 27.8113 52.6995V52.6904Z" fill="white"/>
<path d="M64.7227 43.1441V22.9365C64.3329 18.6529 62.0528 16.3638 57.7647 15.9377H46.9175C42.6294 16.3275 40.3493 18.6166 39.9595 22.9319V52.006C39.9595 53.5154 40.2813 54.9931 40.9114 56.3983C41.5551 57.9712 42.6203 58.7781 44.2793 58.9594C45.825 58.8098 47.0308 58.139 47.9736 56.9106C48.8983 55.6323 49.6281 54.2407 50.1358 52.7992L52.7694 44.7216C53.7304 41.3219 54.2789 37.7817 54.3922 34.237V19.7453H57.9052C59.732 19.8994 60.8244 20.9873 60.9785 22.8186V22.8957V43.2167C60.8199 46.1223 60.0719 48.9463 58.7619 51.6071L58.7393 51.6524L53.9117 60.1334L57.2117 62.0327L62.0347 53.5154C63.6303 50.3197 64.5459 46.8158 64.7318 43.1396L64.7227 43.1441ZM50.5801 34.3005C50.4622 37.4191 49.9681 40.5241 49.1114 43.534L46.505 51.7023C46.2557 52.3641 45.9429 53.0123 45.5712 53.6287L44.3972 55.5869L43.8986 53.3613C43.8079 52.9579 43.7626 52.5046 43.7626 52.015V22.8186C43.9167 20.9873 45.0091 19.8994 46.8359 19.7453H46.9129H50.5801V34.3005Z" fill="white"/>
<path d="M95.2928 50.977C95.9184 49.7214 96.2538 48.3661 96.2946 46.9427V34.7084C95.9773 31.345 94.2457 29.6135 90.8415 29.2599H71.6719V32.5462H90.9322C92.1651 32.6097 92.9402 33.3848 93.0037 34.6178V34.6631V47.0379C92.8269 48.8647 92.0563 50.4331 90.7101 51.6932L90.6511 51.7431L82.6324 58.0483L84.6677 60.6366L92.7227 54.3404C93.8015 53.393 94.6673 52.2598 95.2974 50.9679L95.2928 50.977Z" fill="white"/>
<path d="M24.2848 39.817L21.6784 51.2535C21.2976 52.151 20.6766 52.6496 19.7338 52.8173L19.6159 52.8264H14.3668C14.3306 52.8173 14.2943 52.8128 14.2671 52.8083L13.7503 52.7222L13.6914 52.1057V34.1373H24.8333V25.3208H13.6914V23.8612H24.8333V15.0991H13.6914V9.54176H15.0604V13.7347H26.2022V35.5107H15.0604V51.4665H19.557C19.9967 51.3804 20.2143 51.2036 20.4046 50.7775L22.9521 39.5314L24.2893 39.8261L24.2848 39.817ZM34.1892 42.0064L31.5193 53.8191C29.7741 59.3402 25.8079 62.5178 20.042 63.0028L19.9151 63.0118L14.0541 62.9982C7.80772 62.4044 4.06354 58.6557 3.5196 52.4411L3.506 52.2825V35.5062H0.174316V13.7302H3.506V9.53723H4.87493V15.0946H1.54325V23.8567H4.87493V25.3163H1.54325V34.1327H4.87493V52.3142C5.36449 57.7945 8.66897 61.1035 14.1855 61.6293L14.2626 61.6384H19.9287C25.0962 61.1987 28.6545 58.352 30.2184 53.4021L30.2365 53.3386L32.8565 41.7027L34.1892 41.9973V42.0064Z" fill="white"/>
<path d="M80.2439 55.0158L88.1402 48.7921C88.725 48.2164 89.0332 47.6 89.1329 46.7931V36.4218H71.6768V35.0529H90.5019V46.911C90.3659 48.0487 89.899 48.9916 89.0695 49.7939L89.0151 49.8392L81.0871 56.0856L80.2439 55.0113V55.0158ZM86.2047 62.6084L94.3503 56.2533C95.6921 55.0838 96.7663 53.6831 97.5369 52.0966C98.3302 50.5101 98.7563 48.7921 98.8016 46.9926V34.5905L98.7971 34.518C98.3801 29.899 95.7011 27.2155 91.0504 26.7577L90.9733 26.7486H71.6813V25.3797L91.1864 25.3933C96.4989 25.9191 99.6855 29.1148 100.161 34.3911L100.175 34.5543V47.0016C100.125 49.0188 99.6538 50.9316 98.7699 52.6904C97.9222 54.4356 96.7346 55.9813 95.2524 57.2732L95.2025 57.314L87.0569 63.6691L86.2138 62.5948L86.2047 62.6084Z" fill="white"/>
<path d="M120.409 13.3811H112.948V17.1978H120.378C121.089 17.1479 121.719 17.3791 122.209 17.8687L122.322 18.0092C122.549 18.3537 122.699 18.7299 122.753 19.1334L122.767 19.2421L122.44 22.6418L126.193 22.9908L126.465 19.6501C126.565 17.9503 126.094 16.5269 125.024 15.3212C123.759 14.0248 122.241 13.3811 120.409 13.3811Z" fill="white"/>
<path d="M131.47 52.2281C131.275 48.6063 130.364 45.1386 128.759 41.9157L121.797 29.6089L118.542 31.4674L125.414 43.8059C126.787 46.4713 127.558 49.2862 127.717 52.2054V52.2824L127.712 52.3595C127.508 54.0865 126.425 55.1472 124.661 55.3467H124.557L118.909 55.3512V59.1679H124.512C128.727 58.7418 131.003 56.4708 131.47 52.2281Z" fill="white"/>
<path d="M134.312 37.6322C135.141 38.3574 135.536 39.3592 135.486 40.6012V45.1205H139.302V40.5649C139.302 38.779 138.826 37.2151 137.847 35.7827C136.805 34.3458 135.436 33.6251 133.691 33.5888H130.821V37.4055H134.053L134.312 37.6322Z" fill="white"/>
<path d="M113.053 51.2217H116.443V47.405H112.817L112.663 47.3506C111.262 46.8339 110.519 45.7188 110.569 44.2139V35.2297H106.752V44.2184C106.997 48.2935 109.059 50.5826 113.048 51.2217H113.053Z" fill="white"/>
<path d="M112.948 9.49643H120.41C123.301 9.49643 125.804 10.5526 127.834 12.6377L127.916 12.7239C129.693 14.7229 130.504 17.1298 130.341 19.8949L129.747 27.2155L124.634 26.7396L126.937 30.8101V29.6996H133.709C136.71 29.754 139.23 31.073 141.002 33.5117L141.048 33.5752C142.467 35.6558 143.183 37.9993 143.183 40.5559V48.9961H135.033C135.191 50.016 135.296 51.0586 135.345 52.0921L135.359 52.3233L135.336 52.5544C134.693 58.7146 130.962 62.4362 124.838 63.03L124.693 63.0436H115.015V55.0974L112.699 55.0883L112.527 55.0611C106.652 54.1591 103.221 50.3741 102.872 44.4088V44.3408L102.867 35.2161H104.236V44.3272C104.549 49.5809 107.563 52.908 112.731 53.7013L112.853 53.7194H116.384V61.6656L124.702 61.6565C130.105 61.1307 133.396 57.8443 133.967 52.4003L133.981 52.2779V52.1555C133.913 50.9045 133.768 49.6488 133.546 48.425L133.401 47.6181H141.809V40.5468C141.809 38.2713 141.175 36.1861 139.919 34.3503L139.887 34.305C138.382 32.2335 136.238 31.1093 133.691 31.064H128.301V36.0094L122.73 26.1594L115.124 30.5064L123.188 44.9845C124.344 47.2419 125.01 49.6171 125.178 52.074L125.214 52.627L124.68 52.7766C124.634 52.7901 124.58 52.8037 124.507 52.8173L124.389 52.8264H118.95V44.8802H113.075V35.2161H114.444V43.5068H120.319V51.4529H123.746C123.519 49.4313 122.925 47.4731 121.978 45.6236L113.266 29.9851L119.757 26.2772L118.193 26.1322L118.678 21.0644H112.935V19.6955H120.187L119.689 24.8947L122.141 25.1213L128.487 25.7106L128.968 19.7861C129.108 17.4154 128.41 15.3393 126.896 13.635L126.837 13.5715C125.083 11.7719 122.916 10.8563 120.405 10.8563H112.944V9.48737L112.948 9.49643ZM132.975 45.2247L131.66 42.1922C131.47 41.7571 131.27 41.3219 131.062 40.9004L130.572 39.9122H132.97V45.2202L132.975 45.2247Z" fill="white"/>
<path d="M199.752 3.709L196.87 6.59052L199.752 9.47203L202.633 6.59052L199.752 3.709Z" fill="white"/>
<path d="M211.24 0L205.497 5.74318L199.753 0L193.163 6.59084L199.753 13.1817L205.497 7.43849L211.24 13.1817L217.831 6.59084L211.24 0ZM199.753 11.4864L194.858 6.59084L199.753 1.6953L204.649 6.59084L199.753 11.4864ZM211.24 11.4864L206.344 6.59084L211.24 1.6953L216.135 6.59084L211.24 11.4864Z" fill="white"/>
<path d="M211.237 3.70534L208.355 6.58685L211.237 9.46837L214.118 6.58686L211.237 3.70534Z" fill="white"/>
<path d="M143.967 21.5494L143.205 21.4995C142.974 21.4859 142.761 21.3454 142.725 21.1913C142.693 21.0372 142.725 20.5431 142.915 20.4116L143.55 19.9855C143.74 19.8586 143.804 19.5912 143.69 19.3917L143.396 18.884C143.282 18.6846 143.015 18.603 142.811 18.7072L142.122 19.0472C141.913 19.1469 141.66 19.1379 141.555 19.02C141.451 18.9067 141.229 18.4579 141.329 18.2494L141.669 17.5604C141.768 17.3519 141.691 17.089 141.492 16.9757L140.984 16.681C140.785 16.5677 140.517 16.6266 140.39 16.8216L139.964 17.4562C139.837 17.6465 139.665 17.7825 139.583 17.7508L139.506 17.7281L139.312 17.6692C139.089 17.6239 138.894 17.3972 138.876 17.1661L138.826 16.4C138.813 16.1688 138.609 15.983 138.378 15.983H137.793C137.562 15.983 137.362 16.1734 137.344 16.4L137.294 17.1615C137.281 17.3927 137.14 17.6057 136.986 17.642C136.832 17.6737 136.338 17.642 136.206 17.4516L135.78 16.817C135.653 16.6266 135.386 16.5632 135.187 16.6765L134.679 16.9711C134.479 17.0845 134.398 17.3519 134.502 17.5559L134.842 18.2449C134.942 18.4534 134.933 18.7072 134.815 18.8115C134.697 18.9158 134.253 19.1379 134.044 19.0381L133.355 18.6982C133.147 18.5985 132.884 18.6755 132.771 18.875L132.476 19.3826C132.363 19.5821 132.422 19.8495 132.616 19.9765L133.251 20.4025C133.441 20.5295 133.577 20.7017 133.546 20.7833L133.523 20.8604L133.464 21.0553C133.419 21.2774 133.192 21.4723 132.961 21.4904L132.195 21.5403C131.964 21.5539 131.778 21.7579 131.778 21.9891V22.5738C131.778 22.805 131.964 23.0044 132.195 23.0226L132.956 23.0724C133.188 23.086 133.401 23.2265 133.437 23.3807C133.469 23.5348 133.437 24.0289 133.247 24.1603L132.612 24.5864C132.422 24.7133 132.358 24.9808 132.471 25.1802L132.766 25.6879C132.879 25.8874 133.147 25.969 133.351 25.8647L134.04 25.5247C134.248 25.425 134.502 25.4341 134.606 25.5519C134.711 25.6652 134.933 26.114 134.833 26.3225L134.493 27.0115C134.393 27.22 134.47 27.4829 134.67 27.5963L135.178 27.8909C135.377 28.0042 135.644 27.9453 135.771 27.7504L136.197 27.1158C136.324 26.9254 136.497 26.7894 136.578 26.8211L136.655 26.8438L136.85 26.9027C137.072 26.9481 137.267 27.1747 137.285 27.4059L137.335 28.1719C137.349 28.4031 137.553 28.589 137.784 28.589H138.369C138.6 28.589 138.799 28.3986 138.817 28.1719L138.867 27.4104C138.881 27.1792 139.021 26.9662 139.176 26.9299C139.33 26.8982 139.824 26.9299 139.955 27.1203L140.381 27.7549C140.508 27.9453 140.776 28.0088 140.975 27.8954L141.483 27.6008C141.682 27.4875 141.764 27.22 141.66 27.016L141.32 26.327C141.22 26.1185 141.229 25.8647 141.347 25.7604C141.465 25.6562 141.909 25.4341 142.117 25.5338L142.806 25.8738C143.015 25.9735 143.278 25.8964 143.391 25.697L143.686 25.1893C143.799 24.9898 143.74 24.7224 143.545 24.5955L142.911 24.1694C142.72 24.0425 142.584 23.8702 142.616 23.7886L142.639 23.7116L142.698 23.5167C142.743 23.2945 142.97 23.0996 143.201 23.0815L143.967 23.0316C144.198 23.018 144.384 22.8141 144.384 22.5829V21.9981C144.384 21.767 144.193 21.5675 143.967 21.5494ZM138.079 24.183C137.031 24.183 136.188 23.3353 136.188 22.2928C136.188 21.2502 137.036 20.4025 138.079 20.4025C139.121 20.4025 139.969 21.2502 139.969 22.2928C139.969 23.3353 139.121 24.183 138.079 24.183Z" fill="white"/>
</g>
<defs>
<clipPath id="clip0_332_16206">
<rect width="217.652" height="64" fill="white" transform="translate(0.174316)"/>
</clipPath>
</defs>
</svg>
