<svg width="138" height="40" viewBox="0 0 138 40" fill="none" xmlns="http://www.w3.org/2000/svg">
<g id="_&#227;&#131;&#172;&#227;&#130;&#164;&#227;&#131;&#164;&#227;&#131;&#188;_1" clip-path="url(#clip0_437_855)">
<path id="Vector" d="M103.02 36.5013L100.328 35.0139L104.72 27.2202C105.348 26.1011 105.739 24.6733 105.878 22.9763V14.8312H96.1948V11.763H105.878V8.23584H108.946V11.763H111.332V14.8312H108.946V22.9621C108.856 24.9877 108.337 26.9369 107.405 28.7784L103.017 36.5013H103.02ZM97.0532 12.6214V13.9756H106.737V23.0244C106.584 24.8659 106.159 26.4128 105.467 27.6395L101.501 34.6825L102.694 35.3426L106.654 28.3761C107.521 26.6621 108.009 24.8291 108.094 22.9479V13.9785H110.479V12.6243H108.094V9.09709H106.739V12.6243" fill="#51A940"/>
<path id="Vector_2" d="M131.914 36.2774H122.08C119.488 35.997 118.103 34.6116 117.848 32.042V31.9995V8.13379H120.953V14.9133H125.231C126.208 14.7887 126.922 14.29 127.412 13.3863L127.418 13.3778L128.514 10.4569L131.427 11.5335L130.307 14.4628C129.849 15.4884 129.169 16.3242 128.276 16.9729C127.355 17.6019 126.327 17.939 125.208 17.9843H120.956V32.0363C121.012 32.7134 121.403 33.1016 122.086 33.1752H122.094H131.919V36.2803L131.914 36.2774ZM122.148 35.419H131.055V34.0308L121.987 34.0251C120.885 33.9033 120.179 33.1837 120.097 32.1043V32.0505L120.094 17.1259H125.188C126.129 17.0891 127.007 16.8001 127.78 16.2703C128.54 15.7207 129.126 14.9983 129.514 14.1342L130.313 12.0377L129.013 11.559L128.166 13.7942C127.542 14.9445 126.59 15.6074 125.333 15.7632L125.245 15.7717H120.094V8.99221H118.706V31.9797C118.924 34.1215 119.987 35.1839 122.151 35.4218L122.148 35.419Z" fill="#51A940"/>
<path id="Vector_3" d="M103.781 39.2094L97.5968 35.7899L102.977 26.2396C103.456 25.3897 103.759 24.2621 103.878 22.8881V16.8338H94.1943V9.76251H103.878V6.23535H110.949V9.76251H113.335V16.8338H110.949V23.0524C110.844 25.3557 110.252 27.5881 109.193 29.6846L109.178 29.7129L103.781 39.2094ZM98.7669 35.4584L103.456 38.0506L108.428 29.2993C109.433 27.3133 109.994 25.197 110.091 23.0127V22.9787V15.9811H112.476V10.6266H110.091V7.09944H104.736V10.6266H95.0528V15.9811H104.736V22.9476C104.606 24.4519 104.266 25.7013 103.725 26.6646L98.7669 35.4641V35.4584Z" fill="#51A940"/>
<path id="Vector_4" d="M133.914 38.2777L121.905 38.2692C118.341 37.9009 116.193 35.7478 115.853 32.2065L115.845 32.0988V6.13379H122.95V12.9133H125.066C125.307 12.8651 125.449 12.7603 125.593 12.528L127.333 7.89312L134.01 10.3607L132.126 15.2846C131.531 16.6218 130.63 17.7352 129.443 18.5936L129.407 18.6191C128.169 19.4662 126.78 19.9223 125.282 19.9818H125.217H122.95V31.1724H133.914V38.2777ZM122.043 37.4193H133.056V32.028H122.092V19.1234H125.256C126.585 19.0696 127.82 18.6616 128.919 17.9108L128.948 17.891C130.004 17.1232 130.812 16.1288 131.344 14.9304L131.359 14.8965L132.9 10.8593L127.834 8.98668L126.35 12.9275C126.066 13.4091 125.692 13.6726 125.174 13.7604L125.103 13.7661H122.089V6.98654H116.697V32.0705L116.703 32.1186C116.998 35.2095 118.876 37.0907 121.99 37.4108L122.041 37.4165L122.043 37.4193Z" fill="#51A940"/>
<path id="Vector_5" d="M43.7404 14.1453C43.3976 10.264 41.0688 7.92104 37.1819 7.54707L30.1077 7.53857L30.0085 7.54707C26.1103 7.88987 23.7758 10.2328 23.4358 14.1453L23.4302 14.2076V32.5035C23.4302 33.7841 23.6965 35.0334 24.2234 36.2092C24.9714 38.0223 26.4077 39.0791 28.3739 39.266L28.5382 39.2802L28.7025 39.266C30.3655 39.1272 31.7764 38.3566 32.7878 37.0336L32.8133 36.9967C32.8869 36.8948 32.9578 36.7956 33.0258 36.6936L36.2129 31.5261C36.9212 30.0756 37.3292 28.5401 37.4198 26.9365V14.3776L37.3603 13.9725L37.0657 13.9186C37.0459 13.9158 37.026 13.913 37.0005 13.9073H36.4368V21.4432C36.3631 23.7834 36.0005 26.1235 35.363 28.3871L33.6915 33.5149C33.3261 34.5575 32.7991 35.5604 32.1277 36.4925L32.1078 36.518C31.2494 37.6399 30.051 38.2943 28.6345 38.4133L28.5467 38.4218L28.4589 38.4133C26.8298 38.2603 25.64 37.3849 25.0139 35.8692C24.5322 34.7926 24.2886 33.6622 24.2886 32.5035V14.2218C24.5946 10.7683 26.6542 8.70013 30.0907 8.39699H37.06H37.1082C40.539 8.72563 42.5958 10.7938 42.899 14.2189L42.9046 26.9875V27.0244C42.7772 29.5458 42.151 31.9482 41.0433 34.1609L38.0289 39.572L38.7684 39.9998L41.7686 34.617L41.8026 34.5518C42.967 32.2259 43.6214 29.7073 43.7546 27.0697V14.2416L43.7489 14.1424L43.7404 14.1453Z" fill="#51A940"/>
<path id="Vector_6" d="M18.2572 32.9314L19.8663 25.7297L17.5687 25.2226L15.9312 32.4951C15.4779 33.6878 14.5742 34.4074 13.322 34.5802L13.2455 34.5859H9.78914C8.61342 34.4896 7.93065 33.8011 7.86549 32.6481V32.6169V19.7718H14.8292V17.3949H7.86549V13.3493H14.8292V11.0063H7.86549V5.96631H5.48855V11.0063H3.40625V13.3493H5.48855V17.3949H3.40625V19.7718H5.48855V32.5914C5.73219 35.2687 7.16289 36.6994 9.8628 36.9657H13.22C15.8179 36.739 17.4639 35.4217 18.2572 32.9371V32.9314Z" fill="#51A940"/>
<path id="Vector_7" d="M41.3266 26.965V14.3352C41.083 11.6579 39.658 10.2272 36.9779 9.96094H30.1984C27.5183 10.2046 26.0933 11.6353 25.8496 14.3324V32.5036C25.8496 33.447 26.0508 34.3706 26.4446 35.2488C26.8468 36.2319 27.5126 36.7362 28.5495 36.8495C29.5156 36.756 30.2692 36.3367 30.8585 35.569C31.4364 34.7701 31.8925 33.9003 32.2098 32.9994L33.8558 27.9509C34.4565 25.8261 34.7993 23.6135 34.8701 21.398V12.3407H37.0657C38.2074 12.437 38.8902 13.117 38.9865 14.2615V14.3097V27.0103C38.8874 28.8263 38.4199 30.5913 37.6012 32.2543L37.587 32.2826L34.5698 37.5833L36.6322 38.7703L39.6466 33.447C40.6439 31.4497 41.2161 29.2598 41.3323 26.9621L41.3266 26.965ZM32.4875 21.4377C32.4138 23.3868 32.105 25.3275 31.5696 27.2086L29.9406 32.3138C29.7847 32.7274 29.5893 33.1325 29.3569 33.5178L28.6232 34.7417L28.3115 33.3507C28.2549 33.0986 28.2266 32.8152 28.2266 32.5093V14.2615C28.3229 13.117 29.0056 12.437 30.1474 12.3407H30.1955H32.4875V21.4377Z" fill="#51A940"/>
<path id="Vector_8" d="M60.433 31.8608C60.824 31.076 61.0336 30.229 61.0591 29.3394V21.6929C60.8608 19.5908 59.7786 18.5086 57.6509 18.2876H45.6699V20.3416H57.7076C58.4782 20.3812 58.9626 20.8657 59.0023 21.6363V21.6646V29.3989C58.8918 30.5406 58.4102 31.5208 57.5688 32.3084L57.532 32.3396L52.5203 36.2804L53.7923 37.8981L58.8267 33.9629C59.5009 33.3708 60.042 32.6626 60.4358 31.8551L60.433 31.8608Z" fill="#51A940"/>
<path id="Vector_9" d="M16.0529 24.8858L14.4239 32.0336C14.186 32.5946 13.7978 32.9062 13.2086 33.011L13.1349 33.0167H9.8542C9.83154 33.011 9.80888 33.0082 9.79188 33.0053L9.46891 32.9515L9.43208 32.5662V21.336H16.3957V15.8257H9.43208V14.9134H16.3957V9.4371H9.43208V5.96377H10.2877V8.58435H17.2513V22.1944H10.2877V32.1668H13.0981C13.3729 32.1129 13.5089 32.0024 13.6278 31.7361L15.22 24.7073L16.0558 24.8915L16.0529 24.8858ZM22.2432 26.2542L20.5745 33.6371C19.4838 37.0878 17.0049 39.0738 13.4012 39.3769L13.3219 39.3826L9.65872 39.3741C5.75476 39.0029 3.41465 36.66 3.07469 32.7759L3.06619 32.6767V22.1915H0.983887V8.58152H3.06619V5.96094H3.92177V9.43427H1.83947V14.9106H3.92177V15.8228H1.83947V21.3331H3.92177V32.6965C4.22774 36.1217 6.29305 38.1898 9.74088 38.5185L9.78904 38.5241H13.3304C16.5601 38.2493 18.784 36.4702 19.7614 33.3765L19.7728 33.3368L21.4103 26.0643L22.2432 26.2485V26.2542Z" fill="#51A940"/>
<path id="Vector_10" d="M51.0273 34.3849L55.9625 30.4951C56.328 30.1353 56.5206 29.75 56.583 29.2457V22.7636H45.6729V21.9081H57.4386V29.3193C57.3536 30.0304 57.0618 30.6197 56.5433 31.1212L56.5093 31.1495L51.5543 35.0535L51.0273 34.382V34.3849ZM54.7528 39.1302L59.8438 35.1583C60.6824 34.4274 61.3538 33.5519 61.8355 32.5604C62.3313 31.5688 62.5976 30.4951 62.6259 29.3703V21.6191L62.6231 21.5738C62.3624 18.6869 60.6881 17.0097 57.7814 16.7236L57.7332 16.7179H45.6757V15.8623L57.8663 15.8708C61.1867 16.1994 63.1783 18.1967 63.4758 21.4944L63.4843 21.5964V29.376C63.4531 30.6367 63.1585 31.8323 62.6061 32.9315C62.0763 34.0222 61.334 34.9883 60.4076 35.7957L60.3764 35.8212L55.2854 39.7932L54.7585 39.1217L54.7528 39.1302Z" fill="#51A940"/>
<path id="Vector_11" d="M76.131 8.36328H71.4678V10.7487H76.1112C76.556 10.7176 76.9498 10.862 77.2557 11.168L77.3265 11.2558C77.4682 11.4711 77.5617 11.7063 77.5957 11.9584L77.6042 12.0264L77.4002 14.1512L79.746 14.3694L79.916 12.2814C79.9783 11.219 79.6837 10.3294 79.015 9.57583C78.2246 8.76558 77.2756 8.36328 76.131 8.36328Z" fill="#51A940"/>
<path id="Vector_12" d="M83.0438 32.6424C82.9219 30.3787 82.3525 28.2114 81.3496 26.1971L76.998 18.5054L74.9639 19.6669L79.2588 27.3785C80.1172 29.0444 80.5988 30.8037 80.698 32.6282V32.6763L80.6951 32.7245C80.5677 33.8039 79.8906 34.4668 78.7885 34.5915H78.7233L75.1933 34.5943V36.9798H78.695C81.3298 36.7135 82.752 35.2941 83.0438 32.6424Z" fill="#51A940"/>
<path id="Vector_13" d="M84.8196 23.5203C85.3381 23.9735 85.5846 24.5997 85.5534 25.3759V28.2005H87.9388V25.3532C87.9388 24.237 87.6414 23.2596 87.0294 22.3644C86.3778 21.4663 85.5222 21.0158 84.4315 20.9932H82.6382V23.3786H84.6582L84.8196 23.5203Z" fill="#51A940"/>
<path id="Vector_14" d="M71.5327 32.0136H73.6518V29.6282H71.3854L71.289 29.5942C70.4136 29.2712 69.949 28.5743 69.9802 27.6337V22.0186H67.5947V27.6365C67.7477 30.1834 69.0368 31.6141 71.5298 32.0136H71.5327Z" fill="#51A940"/>
<path id="Vector_15" d="M71.4677 5.93535H76.1309C77.9384 5.93535 79.5023 6.59546 80.7715 7.89867L80.8225 7.95249C81.9331 9.20187 82.4402 10.7062 82.3382 12.4344L81.9671 17.0098L78.7714 16.7123L80.2105 19.2564V18.5623H84.4431C86.3186 18.5963 87.8938 19.4207 89.0015 20.9449L89.0299 20.9846C89.9166 22.285 90.3642 23.7496 90.3642 25.3475V30.6227H85.2704C85.3696 31.2601 85.4347 31.9117 85.4659 32.5576L85.4744 32.7021L85.4602 32.8466C85.0579 36.6967 82.7263 39.0227 78.8988 39.3938L78.8082 39.4023H72.7596V34.436L71.3119 34.4303L71.2042 34.4133C67.5326 33.8495 65.388 31.4839 65.1698 27.7556V27.7131L65.167 22.0101H66.0226V27.7046C66.2181 30.9881 68.102 33.0676 71.3317 33.5634L71.4082 33.5747H73.6152V38.5411L78.8139 38.5354C82.1909 38.2068 84.2477 36.1528 84.6046 32.7503L84.6131 32.6738V32.5973C84.5706 31.8154 84.48 31.0306 84.3412 30.2657L84.2505 29.7614H89.5058V25.3418C89.5058 23.9196 89.1092 22.6164 88.3244 21.469L88.3046 21.4407C87.364 20.146 86.024 19.4434 84.4318 19.4151H81.0633V22.5059L77.5815 16.3497L72.8276 19.0666L77.8676 28.1154C78.59 29.5263 79.0065 31.0108 79.1113 32.5463L79.134 32.8919L78.7997 32.9854C78.7714 32.9939 78.7374 33.0024 78.692 33.0109L78.6184 33.0166H75.2187V28.0502H71.547V22.0101H72.4026V27.1918H76.0743V32.1582H78.2161C78.0744 30.8946 77.7033 29.6707 77.1112 28.5149L71.666 18.7408L75.723 16.4233L74.7456 16.3327L75.0487 13.1653H71.4592V12.3097H75.9921L75.6805 15.5593L77.2132 15.7009L81.1795 16.0692L81.4798 12.3664C81.5676 10.8847 81.1313 9.58717 80.1851 8.52194L80.1482 8.48228C79.0518 7.35755 77.6976 6.78527 76.1281 6.78527H71.4649V5.92969L71.4677 5.93535ZM83.9842 28.2655L83.1626 26.3702C83.0436 26.0983 82.919 25.8263 82.7886 25.5628L82.4827 24.9452H83.9814V28.2627L83.9842 28.2655Z" fill="#51A940"/>
<path id="Vector_16" d="M125.72 2.3182L123.919 4.11914L125.72 5.92009L127.521 4.11914L125.72 2.3182Z" fill="#51A940"/>
<path id="Vector_17" d="M132.9 0L129.31 3.58949L125.721 0L121.602 4.11927L125.721 8.23854L129.31 4.64905L132.9 8.23854L137.019 4.11927L132.9 0ZM125.721 7.17898L122.661 4.11927L125.721 1.05957L128.781 4.11927L125.721 7.17898ZM132.9 7.17898L129.84 4.11927L132.9 1.05957L135.96 4.11927L132.9 7.17898Z" fill="#51A940"/>
<path id="Vector_18" d="M132.898 2.31575L131.097 4.1167L132.898 5.91765L134.699 4.1167L132.898 2.31575Z" fill="#51A940"/>
<path id="Vector_19" d="M90.8544 13.4683L90.3785 13.4371C90.234 13.4286 90.1008 13.3408 90.0782 13.2444C90.0583 13.1481 90.0782 12.8393 90.1972 12.7572L90.5938 12.4909C90.7128 12.4115 90.7524 12.2444 90.6816 12.1197L90.4975 11.8024C90.4266 11.6778 90.2595 11.6268 90.132 11.6919L89.7014 11.9044C89.5711 11.9667 89.4124 11.9611 89.3472 11.8874C89.2821 11.8166 89.1433 11.5361 89.2056 11.4058L89.4181 10.9752C89.4804 10.8448 89.4322 10.6805 89.3076 10.6097L88.9903 10.4255C88.8656 10.3547 88.6985 10.3916 88.6191 10.5134L88.3528 10.91C88.2735 11.029 88.1659 11.114 88.1149 11.0942L88.0667 11.08L87.9449 11.0432C87.8061 11.0148 87.6842 10.8732 87.6729 10.7287L87.6417 10.2499C87.6332 10.1054 87.5058 9.98926 87.3613 9.98926H86.9958C86.8513 9.98926 86.7267 10.1082 86.7153 10.2499L86.6842 10.7259C86.6757 10.8703 86.5878 11.0035 86.4915 11.0262C86.3952 11.046 86.0864 11.0262 86.0042 10.9072L85.7379 10.5105C85.6586 10.3916 85.4915 10.3519 85.3668 10.4227L85.0495 10.6069C84.9248 10.6777 84.8738 10.8448 84.939 10.9723L85.1515 11.403C85.2138 11.5333 85.2081 11.6919 85.1345 11.7571C85.0608 11.8222 84.7832 11.9611 84.6529 11.8987L84.2222 11.6863C84.0919 11.6239 83.9276 11.6721 83.8568 11.7968L83.6726 12.1141C83.6018 12.2387 83.6386 12.4059 83.7604 12.4852L84.1571 12.7515C84.2761 12.8308 84.3611 12.9385 84.3412 12.9895L84.3271 13.0376L84.2902 13.1595C84.2619 13.2983 84.1202 13.4201 83.9758 13.4314L83.497 13.4626C83.3525 13.4711 83.2363 13.5986 83.2363 13.7431V14.1085C83.2363 14.253 83.3525 14.3777 83.497 14.389L83.9729 14.4202C84.1174 14.4287 84.2506 14.5165 84.2732 14.6128C84.2931 14.7091 84.2732 15.0179 84.1542 15.1001L83.7576 15.3664C83.6386 15.4457 83.599 15.6129 83.6698 15.7375L83.8539 16.0548C83.9248 16.1795 84.0919 16.2305 84.2194 16.1653L84.65 15.9529C84.7804 15.8905 84.939 15.8962 85.0042 15.9699C85.0693 16.0407 85.2081 16.3212 85.1458 16.4515L84.9333 16.8821C84.871 17.0124 84.9192 17.1767 85.0438 17.2476L85.3611 17.4317C85.4858 17.5025 85.6529 17.4657 85.7323 17.3439L85.9986 16.9473C86.0779 16.8283 86.1856 16.7433 86.2365 16.7631L86.2847 16.7773L86.4065 16.8141C86.5453 16.8424 86.6672 16.9841 86.6785 17.1286L86.7097 17.6074C86.7182 17.7518 86.8456 17.868 86.9901 17.868H87.3556C87.5001 17.868 87.6247 17.749 87.6361 17.6074L87.6672 17.1314C87.6757 16.9869 87.7636 16.8538 87.8599 16.8311C87.9562 16.8113 88.265 16.8311 88.3472 16.9501L88.6135 17.3467C88.6928 17.4657 88.86 17.5054 88.9846 17.4345L89.3019 17.2504C89.4266 17.1796 89.4776 17.0124 89.4124 16.8849L89.1999 16.4543C89.1376 16.324 89.1433 16.1653 89.2169 16.1002C89.2906 16.035 89.5682 15.8962 89.6986 15.9585L90.1292 16.171C90.2595 16.2333 90.4238 16.1852 90.4946 16.0605L90.6788 15.7432C90.7496 15.6186 90.7128 15.4514 90.591 15.3721L90.1943 15.1058C90.0753 15.0264 89.9903 14.9188 90.0102 14.8678L90.0244 14.8196L90.0612 14.6978C90.0895 14.559 90.2312 14.4372 90.3756 14.4258L90.8544 14.3947C90.9989 14.3862 91.1151 14.2587 91.1151 14.1142V13.7487C91.1151 13.6042 90.9961 13.4796 90.8544 13.4683ZM87.1743 15.1143C86.5199 15.1143 85.9929 14.5845 85.9929 13.9329C85.9929 13.2813 86.5227 12.7515 87.1743 12.7515C87.8259 12.7515 88.3557 13.2813 88.3557 13.9329C88.3557 14.5845 87.8259 15.1143 87.1743 15.1143Z" fill="#51A940"/>
</g>
<defs>
<clipPath id="clip0_437_855">
<rect width="136.032" height="40" fill="#51A940" transform="translate(0.983887)"/>
</clipPath>
</defs>
</svg>
